<svg width="25" height="25" viewBox="0 0 25 25" fill="none" xmlns="http://www.w3.org/2000/svg">
    <path d="M18.896 3.26172C20.608 3.26172 21.99 4.64371 21.99 6.35571V10.2927C21.99 11.0997 21.56 12.0977 20.99 12.6677C20.034 13.6237 13.365 20.3247 13.365 20.3237C12.056 21.6327 9.92399 21.6327 8.61499 20.3237L4.92798 16.6367C3.61898 15.3277 3.61898 13.1957 4.92798 11.8867L12.584 4.26172C13.154 3.69172 14.152 3.26172 14.959 3.26172H18.896ZM15.99 7.26172C14.885 7.26172 13.99 8.15672 13.99 9.26172C13.99 10.3667 14.885 11.2617 15.99 11.2617C17.095 11.2617 17.99 10.3667 17.99 9.26172C17.99 8.15672 17.095 7.26172 15.99 7.26172Z" fill="#555555"></path>
</svg>